<?xml version="1.0" encoding="UTF-8" standalone="no"?>
<!DOCTYPE svg PUBLIC "-//W3C//DTD SVG 1.1//EN" "http://www.w3.org/Graphics/SVG/1.1/DTD/svg11.dtd">
<svg width="100%" height="100%" viewBox="0 0 2700 2700" version="1.1" xmlns="http://www.w3.org/2000/svg"
     xmlns:xlink="http://www.w3.org/1999/xlink" xml:space="preserve" xmlns:serif="http://www.serif.com/"
     style="fill-rule:evenodd;clip-rule:evenodd;stroke-linecap:round;stroke-linejoin:round;stroke-miterlimit:1.5;">
    <g transform="matrix(1.05189,0,0,1.05189,-227.834,-227.834)">
        <circle cx="1500" cy="1500" r="1212.11" style="fill:none;stroke:black;stroke-width:0.95px;"/>
    </g>
    <g id="Brown-Jobs" serif:id="Brown Jobs" transform="matrix(1,0,0,1,-150,-150)">
        <path d="M1500,297.902L1500,594.014"
              style="fill:none;stroke:rgb(219,186,115);stroke-width:39.58px;stroke-linecap:butt;"/>
        <g transform="matrix(0.866025,0.5,-0.5,0.866025,950.962,-549.038)">
            <path d="M1500,297.902L1500,594.014"
                  style="fill:none;stroke:rgb(219,186,115);stroke-width:39.58px;stroke-linecap:butt;"/>
        </g>
        <g transform="matrix(0.5,0.866025,-0.866025,0.5,2049.04,-549.038)">
            <path d="M1500,297.902L1500,594.014"
                  style="fill:none;stroke:rgb(219,186,115);stroke-width:39.58px;stroke-linecap:butt;"/>
        </g>
        <g transform="matrix(2.27596e-15,1,-1,2.27596e-15,3000,-3.86535e-12)">
            <path d="M1500,297.902L1500,594.014"
                  style="fill:none;stroke:rgb(219,186,115);stroke-width:39.58px;stroke-linecap:butt;"/>
        </g>
        <g transform="matrix(-0.5,0.866025,-0.866025,-0.5,3549.04,950.962)">
            <path d="M1500,297.902L1500,594.014"
                  style="fill:none;stroke:rgb(219,186,115);stroke-width:39.58px;stroke-linecap:butt;"/>
        </g>
        <g transform="matrix(-0.866025,0.5,-0.5,-0.866025,3549.04,2049.04)">
            <path d="M1500,297.902L1500,594.014"
                  style="fill:none;stroke:rgb(219,186,115);stroke-width:39.58px;stroke-linecap:butt;"/>
        </g>
        <g transform="matrix(-1,4.60743e-15,-4.60743e-15,-1,3000,3000)">
            <path d="M1500,297.902L1500,594.014"
                  style="fill:none;stroke:rgb(219,186,115);stroke-width:39.58px;stroke-linecap:butt;"/>
        </g>
        <g transform="matrix(-0.866025,-0.5,0.5,-0.866025,2049.04,3549.04)">
            <path d="M1500,297.902L1500,594.014"
                  style="fill:none;stroke:rgb(219,186,115);stroke-width:39.58px;stroke-linecap:butt;"/>
        </g>
        <g transform="matrix(-0.5,-0.866025,0.866025,-0.5,950.962,3549.04)">
            <path d="M1500,297.902L1500,594.014"
                  style="fill:none;stroke:rgb(219,186,115);stroke-width:39.58px;stroke-linecap:butt;"/>
        </g>
        <g transform="matrix(-6.88338e-15,-1,1,-6.88338e-15,1.04592e-11,3000)">
            <path d="M1500,297.902L1500,594.014"
                  style="fill:none;stroke:rgb(219,186,115);stroke-width:39.58px;stroke-linecap:butt;"/>
        </g>
        <g transform="matrix(0.5,-0.866025,0.866025,0.5,-549.038,2049.04)">
            <path d="M1500,297.902L1500,594.014"
                  style="fill:none;stroke:rgb(219,186,115);stroke-width:39.58px;stroke-linecap:butt;"/>
        </g>
        <g transform="matrix(0.866025,-0.5,0.5,0.866025,-549.038,950.962)">
            <path d="M1500,297.902L1500,594.014"
                  style="fill:none;stroke:rgb(219,186,115);stroke-width:39.58px;stroke-linecap:butt;"/>
        </g>
    </g>
    <g id="Blue-Jobs" serif:id="Blue Jobs" transform="matrix(1,0,0,1,-150,-150)">
        <g transform="matrix(0.994522,0.104528,-0.104528,0.994522,165.01,-148.576)">
            <path d="M1500,297.902L1500,445.958"
                  style="fill:none;stroke:rgb(26,18,102);stroke-width:27.08px;stroke-linecap:butt;"/>
        </g>
        <g transform="matrix(0.978148,0.207912,-0.207912,0.978148,344.646,-279.089)">
            <path d="M1500,297.902L1500,445.958"
                  style="fill:none;stroke:rgb(26,18,102);stroke-width:27.08px;stroke-linecap:butt;"/>
        </g>
        <g transform="matrix(0.951057,0.309017,-0.309017,0.951057,536.941,-390.11)">
            <path d="M1500,297.902L1500,445.958"
                  style="fill:none;stroke:rgb(26,18,102);stroke-width:27.08px;stroke-linecap:butt;"/>
        </g>
        <g transform="matrix(0.913545,0.406737,-0.406737,0.913545,739.787,-480.423)">
            <path d="M1500,297.902L1500,445.958"
                  style="fill:none;stroke:rgb(26,18,102);stroke-width:27.08px;stroke-linecap:butt;"/>
        </g>
        <g transform="matrix(0.809017,0.587785,-0.587785,0.809017,1168.15,-595.203)">
            <path d="M1500,297.902L1500,445.958"
                  style="fill:none;stroke:rgb(26,18,102);stroke-width:27.08px;stroke-linecap:butt;"/>
        </g>
        <g transform="matrix(0.743145,0.669131,-0.669131,0.743145,1388.98,-618.413)">
            <path d="M1500,297.902L1500,445.958"
                  style="fill:none;stroke:rgb(26,18,102);stroke-width:27.08px;stroke-linecap:butt;"/>
        </g>
        <g transform="matrix(0.669131,0.743145,-0.743145,0.669131,1611.02,-618.413)">
            <path d="M1500,297.902L1500,445.958"
                  style="fill:none;stroke:rgb(26,18,102);stroke-width:27.08px;stroke-linecap:butt;"/>
        </g>
        <g transform="matrix(0.587785,0.809017,-0.809017,0.587785,1831.85,-595.203)">
            <path d="M1500,297.902L1500,445.958"
                  style="fill:none;stroke:rgb(26,18,102);stroke-width:27.08px;stroke-linecap:butt;"/>
        </g>
        <g transform="matrix(0.406737,0.913545,-0.913545,0.406737,2260.21,-480.423)">
            <path d="M1500,297.902L1500,445.958"
                  style="fill:none;stroke:rgb(26,18,102);stroke-width:27.08px;stroke-linecap:butt;"/>
        </g>
        <g transform="matrix(0.309017,0.951057,-0.951057,0.309017,2463.06,-390.11)">
            <path d="M1500,297.902L1500,445.958"
                  style="fill:none;stroke:rgb(26,18,102);stroke-width:27.08px;stroke-linecap:butt;"/>
        </g>
        <g transform="matrix(0.207912,0.978148,-0.978148,0.207912,2655.35,-279.089)">
            <path d="M1500,297.902L1500,445.958"
                  style="fill:none;stroke:rgb(26,18,102);stroke-width:27.08px;stroke-linecap:butt;"/>
        </g>
        <g transform="matrix(0.104528,0.994522,-0.994522,0.104528,2834.99,-148.576)">
            <path d="M1500,297.902L1500,445.958"
                  style="fill:none;stroke:rgb(26,18,102);stroke-width:27.08px;stroke-linecap:butt;"/>
        </g>
        <g transform="matrix(-0.104528,0.994522,-0.994522,-0.104528,3148.58,165.01)">
            <path d="M1500,297.902L1500,445.958"
                  style="fill:none;stroke:rgb(26,18,102);stroke-width:27.08px;stroke-linecap:butt;"/>
        </g>
        <g transform="matrix(-0.207912,0.978148,-0.978148,-0.207912,3279.09,344.646)">
            <path d="M1500,297.902L1500,445.958"
                  style="fill:none;stroke:rgb(26,18,102);stroke-width:27.08px;stroke-linecap:butt;"/>
        </g>
        <g transform="matrix(-0.309017,0.951057,-0.951057,-0.309017,3390.11,536.941)">
            <path d="M1500,297.902L1500,445.958"
                  style="fill:none;stroke:rgb(26,18,102);stroke-width:27.08px;stroke-linecap:butt;"/>
        </g>
        <g transform="matrix(-0.406737,0.913545,-0.913545,-0.406737,3480.42,739.787)">
            <path d="M1500,297.902L1500,445.958"
                  style="fill:none;stroke:rgb(26,18,102);stroke-width:27.08px;stroke-linecap:butt;"/>
        </g>
        <g transform="matrix(-0.587785,0.809017,-0.809017,-0.587785,3595.2,1168.15)">
            <path d="M1500,297.902L1500,445.958"
                  style="fill:none;stroke:rgb(26,18,102);stroke-width:27.08px;stroke-linecap:butt;"/>
        </g>
        <g transform="matrix(-0.669131,0.743145,-0.743145,-0.669131,3618.41,1388.98)">
            <path d="M1500,297.902L1500,445.958"
                  style="fill:none;stroke:rgb(26,18,102);stroke-width:27.08px;stroke-linecap:butt;"/>
        </g>
        <g transform="matrix(-0.743145,0.669131,-0.669131,-0.743145,3618.41,1611.02)">
            <path d="M1500,297.902L1500,445.958"
                  style="fill:none;stroke:rgb(26,18,102);stroke-width:27.08px;stroke-linecap:butt;"/>
        </g>
        <g transform="matrix(-0.809017,0.587785,-0.587785,-0.809017,3595.2,1831.85)">
            <path d="M1500,297.902L1500,445.958"
                  style="fill:none;stroke:rgb(26,18,102);stroke-width:27.08px;stroke-linecap:butt;"/>
        </g>
        <g transform="matrix(-0.913545,0.406737,-0.406737,-0.913545,3480.42,2260.21)">
            <path d="M1500,297.902L1500,445.958"
                  style="fill:none;stroke:rgb(26,18,102);stroke-width:27.08px;stroke-linecap:butt;"/>
        </g>
        <g transform="matrix(-0.951057,0.309017,-0.309017,-0.951057,3390.11,2463.06)">
            <path d="M1500,297.902L1500,445.958"
                  style="fill:none;stroke:rgb(26,18,102);stroke-width:27.08px;stroke-linecap:butt;"/>
        </g>
        <g transform="matrix(-0.978148,0.207912,-0.207912,-0.978148,3279.09,2655.35)">
            <path d="M1500,297.902L1500,445.958"
                  style="fill:none;stroke:rgb(26,18,102);stroke-width:27.08px;stroke-linecap:butt;"/>
        </g>
        <g transform="matrix(-0.994522,0.104528,-0.104528,-0.994522,3148.58,2834.99)">
            <path d="M1500,297.902L1500,445.958"
                  style="fill:none;stroke:rgb(26,18,102);stroke-width:27.08px;stroke-linecap:butt;"/>
        </g>
        <g transform="matrix(-0.994522,-0.104528,0.104528,-0.994522,2834.99,3148.58)">
            <path d="M1500,297.902L1500,445.958"
                  style="fill:none;stroke:rgb(26,18,102);stroke-width:27.08px;stroke-linecap:butt;"/>
        </g>
        <g transform="matrix(-0.978148,-0.207912,0.207912,-0.978148,2655.35,3279.09)">
            <path d="M1500,297.902L1500,445.958"
                  style="fill:none;stroke:rgb(26,18,102);stroke-width:27.08px;stroke-linecap:butt;"/>
        </g>
        <g transform="matrix(-0.951057,-0.309017,0.309017,-0.951057,2463.06,3390.11)">
            <path d="M1500,297.902L1500,445.958"
                  style="fill:none;stroke:rgb(26,18,102);stroke-width:27.08px;stroke-linecap:butt;"/>
        </g>
        <g transform="matrix(-0.913545,-0.406737,0.406737,-0.913545,2260.21,3480.42)">
            <path d="M1500,297.902L1500,445.958"
                  style="fill:none;stroke:rgb(26,18,102);stroke-width:27.08px;stroke-linecap:butt;"/>
        </g>
        <g transform="matrix(-0.809017,-0.587785,0.587785,-0.809017,1831.85,3595.2)">
            <path d="M1500,297.902L1500,445.958"
                  style="fill:none;stroke:rgb(26,18,102);stroke-width:27.08px;stroke-linecap:butt;"/>
        </g>
        <g transform="matrix(-0.743145,-0.669131,0.669131,-0.743145,1611.02,3618.41)">
            <path d="M1500,297.902L1500,445.958"
                  style="fill:none;stroke:rgb(26,18,102);stroke-width:27.08px;stroke-linecap:butt;"/>
        </g>
        <g transform="matrix(-0.669131,-0.743145,0.743145,-0.669131,1388.98,3618.41)">
            <path d="M1500,297.902L1500,445.958"
                  style="fill:none;stroke:rgb(26,18,102);stroke-width:27.08px;stroke-linecap:butt;"/>
        </g>
        <g transform="matrix(-0.587785,-0.809017,0.809017,-0.587785,1168.15,3595.2)">
            <path d="M1500,297.902L1500,445.958"
                  style="fill:none;stroke:rgb(26,18,102);stroke-width:27.08px;stroke-linecap:butt;"/>
        </g>
        <g transform="matrix(-0.406737,-0.913545,0.913545,-0.406737,739.787,3480.42)">
            <path d="M1500,297.902L1500,445.958"
                  style="fill:none;stroke:rgb(26,18,102);stroke-width:27.08px;stroke-linecap:butt;"/>
        </g>
        <g transform="matrix(-0.309017,-0.951057,0.951057,-0.309017,536.941,3390.11)">
            <path d="M1500,297.902L1500,445.958"
                  style="fill:none;stroke:rgb(26,18,102);stroke-width:27.08px;stroke-linecap:butt;"/>
        </g>
        <g transform="matrix(-0.207912,-0.978148,0.978148,-0.207912,344.646,3279.09)">
            <path d="M1500,297.902L1500,445.958"
                  style="fill:none;stroke:rgb(26,18,102);stroke-width:27.08px;stroke-linecap:butt;"/>
        </g>
        <g transform="matrix(-0.104528,-0.994522,0.994522,-0.104528,165.01,3148.58)">
            <path d="M1500,297.902L1500,445.958"
                  style="fill:none;stroke:rgb(26,18,102);stroke-width:27.08px;stroke-linecap:butt;"/>
        </g>
        <g transform="matrix(0.104528,-0.994522,0.994522,0.104528,-148.576,2834.99)">
            <path d="M1500,297.902L1500,445.958"
                  style="fill:none;stroke:rgb(26,18,102);stroke-width:27.08px;stroke-linecap:butt;"/>
        </g>
        <g transform="matrix(0.207912,-0.978148,0.978148,0.207912,-279.089,2655.35)">
            <path d="M1500,297.902L1500,445.958"
                  style="fill:none;stroke:rgb(26,18,102);stroke-width:27.08px;stroke-linecap:butt;"/>
        </g>
        <g transform="matrix(0.309017,-0.951057,0.951057,0.309017,-390.11,2463.06)">
            <path d="M1500,297.902L1500,445.958"
                  style="fill:none;stroke:rgb(26,18,102);stroke-width:27.08px;stroke-linecap:butt;"/>
        </g>
        <g transform="matrix(0.406737,-0.913545,0.913545,0.406737,-480.423,2260.21)">
            <path d="M1500,297.902L1500,445.958"
                  style="fill:none;stroke:rgb(26,18,102);stroke-width:27.08px;stroke-linecap:butt;"/>
        </g>
        <g transform="matrix(0.587785,-0.809017,0.809017,0.587785,-595.203,1831.85)">
            <path d="M1500,297.902L1500,445.958"
                  style="fill:none;stroke:rgb(26,18,102);stroke-width:27.08px;stroke-linecap:butt;"/>
        </g>
        <g transform="matrix(0.669131,-0.743145,0.743145,0.669131,-618.413,1611.02)">
            <path d="M1500,297.902L1500,445.958"
                  style="fill:none;stroke:rgb(26,18,102);stroke-width:27.08px;stroke-linecap:butt;"/>
        </g>
        <g transform="matrix(0.743145,-0.669131,0.669131,0.743145,-618.413,1388.98)">
            <path d="M1500,297.902L1500,445.958"
                  style="fill:none;stroke:rgb(26,18,102);stroke-width:27.08px;stroke-linecap:butt;"/>
        </g>
        <g transform="matrix(0.809017,-0.587785,0.587785,0.809017,-595.203,1168.15)">
            <path d="M1500,297.902L1500,445.958"
                  style="fill:none;stroke:rgb(26,18,102);stroke-width:27.08px;stroke-linecap:butt;"/>
        </g>
        <g transform="matrix(0.913545,-0.406737,0.406737,0.913545,-480.423,739.787)">
            <path d="M1500,297.902L1500,445.958"
                  style="fill:none;stroke:rgb(26,18,102);stroke-width:27.08px;stroke-linecap:butt;"/>
        </g>
        <g transform="matrix(0.951057,-0.309017,0.309017,0.951057,-390.11,536.941)">
            <path d="M1500,297.902L1500,445.958"
                  style="fill:none;stroke:rgb(26,18,102);stroke-width:27.08px;stroke-linecap:butt;"/>
        </g>
        <g transform="matrix(0.978148,-0.207912,0.207912,0.978148,-279.089,344.646)">
            <path d="M1500,297.902L1500,445.958"
                  style="fill:none;stroke:rgb(26,18,102);stroke-width:27.08px;stroke-linecap:butt;"/>
        </g>
        <g transform="matrix(0.994522,-0.104528,0.104528,0.994522,-148.576,165.01)">
            <path d="M1500,297.902L1500,445.958"
                  style="fill:none;stroke:rgb(26,18,102);stroke-width:27.08px;stroke-linecap:butt;"/>
        </g>
    </g>
    <g id="hour">
        <g transform="matrix(1,0,0,0.734955,0,397.568)">
            <path d="M1350,377.482L1350,1500"
                  style="fill:none;stroke:rgb(26,18,102);stroke-width:30.86px;stroke-linecap:butt;"/>
        </g>
    </g>
    <path id="minute" d="M1350,377.482L1350,1500"
          style="fill:none;stroke:rgb(26,18,102);stroke-width:27.08px;stroke-linecap:butt;"/>
    <path id="second" d="M1350,377.482L1350,1500"
          style="fill:none;stroke:rgb(211,4,73);stroke-width:14.58px;stroke-linecap:butt;"/>
    <defs>
        <animateTransform
                type="rotate"
                fill="remove"
                restart="always"
                calcMode="linear"
                accumulate="none"
                additive="sum"
                xlink:href="#hour"
                repeatCount="indefinite"
                dur="43200s"
                to="360 1350 1350"
                from="0 1350 1350"
                attributeName="transform"
                attributeType="xml">
        </animateTransform>
        <animateTransform
                type="rotate"
                fill="remove"
                restart="always"
                calcMode="linear"
                accumulate="none"
                additive="sum"
                xlink:href="#minute"
                repeatCount="indefinite"
                dur="3600s"
                to="360 1350 1350"
                from="0 1350 1350"
                attributeName="transform"
                attributeType="xml">
        </animateTransform>
        <animateTransform
                type="rotate"
                fill="remove"
                restart="always"
                calcMode="linear"
                accumulate="none"
                additive="sum"
                xlink:href="#second"
                repeatCount="indefinite"
                dur="60s"
                to="360 1350 1350"
                from="0 1350 1350"
                attributeName="transform"
                attributeType="xml">
        </animateTransform>
    </defs>
    <script type="text/javascript">
    <![CDATA[
        let currentDate = new Date()
        let localTimestamp = currentDate.getTime() -
            currentDate.getTimezoneOffset() * 60_000
        let seconds = (localTimestamp % 60_000) / 1000
        let minutes = (localTimestamp % 3_600_000) / 60_000
        let hours = (localTimestamp % 43_200_000) / 3_600_000

        document.querySelector('#second').setAttribute('transform', 'rotate('+360*(seconds/60)+',1350,1350)')
        document.querySelector('#minute').setAttribute('transform', 'rotate('+360*(minutes/60)+',1350,1350)')
        document.querySelector('#hour').setAttribute('transform', 'rotate('+360*(hours/12)+',1350,1350)')
    ]]>
    </script>
</svg>
